<?xml version="1.0" encoding="UTF-8"?>
<svg version="1.1" xmlns="http://www.w3.org/2000/svg" width="2048" height="2048">
<path d="M0 0 C3.57281628 0.01611356 7.14450203 0.00000536 10.71728516 -0.01904297 C31.9945473 -0.03867018 53.20473024 1.72065869 74.13525391 5.64111328 C75.84672607 5.95689331 75.84672607 5.95689331 77.59277344 6.27905273 C107.88068573 12.06076095 137.59596975 21.31891553 165.59472656 34.24902344 C167.87455813 35.29976749 170.16419829 36.32389094 172.45947266 37.34033203 C205.15786509 52.01229306 235.18103456 72.82151792 262.07275391 96.39111328 C262.95060547 97.15681641 263.82845703 97.92251953 264.73291016 98.71142578 C271.43826873 104.71248051 277.83826618 111.02945355 284.22369385 117.36682129 C285.23091623 118.36600189 286.23961421 119.36369769 287.24993896 120.35974121 C293.99660311 127.02111856 300.16842847 133.97108905 306.07275391 141.39111328 C306.93613988 142.41866523 307.80453126 143.44207838 308.68212891 144.45751953 C324.88847551 163.35506602 338.16581861 184.47338353 349.95849609 206.34326172 C350.96699692 208.19674659 352.00641635 210.03332588 353.04931641 211.86767578 C378.30830506 257.08438387 392.48464493 311.02291916 396.07275391 362.39111328 C396.15538986 363.49367462 396.23802582 364.59623596 396.32316589 365.73220825 C397.31903236 380.23377173 397.2032551 394.74701776 397.17414784 409.27470255 C397.16781076 412.9821952 397.16730245 416.68968905 397.16612244 420.39718628 C397.16303918 427.38770644 397.15486718 434.37821058 397.14477295 441.36872375 C397.13351736 449.33996672 397.12807778 457.31121053 397.12307751 465.2824595 C397.11268134 481.65202007 397.09514138 498.02156462 397.07275391 514.39111328 C397.8109949 514.3883479 398.5492359 514.38558252 399.30984783 514.38273335 C417.36786057 514.31614993 435.42584845 514.26667661 453.48395824 514.23567677 C462.21713387 514.22028264 470.95022699 514.19933789 479.68334961 514.16479492 C487.30525074 514.13466194 494.92709205 514.1154843 502.54905111 514.1088478 C506.57565022 514.10497549 510.60207837 514.0960358 514.62862206 514.07392311 C535.31052241 513.96477275 555.91112691 514.01355026 575.88525391 520.14111328 C576.74795898 520.39787842 577.61066406 520.65464355 578.49951172 520.91918945 C586.67366087 523.43297469 594.40100355 526.63142232 602.07275391 530.39111328 C602.75789063 530.71950195 603.44302734 531.04789063 604.14892578 531.38623047 C620.40571445 539.24591755 634.15532537 549.84117915 647.07275391 562.39111328 C647.90045288 563.18485352 647.90045288 563.18485352 648.74487305 563.99462891 C676.99124204 591.52929674 693.73593948 632.0838887 694.41693604 671.3069775 C694.48578984 677.95309905 694.48030749 684.59901273 694.46435793 691.24538149 C694.45759425 695.45892042 694.46834102 699.67242315 694.47675377 703.88595414 C694.48908074 711.25667831 694.49035034 718.62733879 694.48420334 725.99806976 C694.47508671 736.95909051 694.48316481 747.92005268 694.49449458 758.88106894 C694.51413598 778.46223874 694.51651373 798.04338204 694.51129938 817.62455934 C694.50673788 834.76311976 694.50734677 851.90166971 694.51313972 869.0402298 C694.5138966 871.34134792 694.51465258 873.64246604 694.51540767 875.94358416 C694.51655289 879.4113935 694.51770278 882.87920284 694.51886691 886.34701218 C694.52956818 918.57747136 694.53430102 950.80792705 694.52639675 983.0383873 C694.52595099 984.85988794 694.52595099 984.85988794 694.52549623 986.71818657 C694.52304742 996.57870377 694.52043577 1006.43922092 694.51781209 1016.29973807 C694.50771097 1054.75631983 694.51606405 1093.21285792 694.53930664 1131.66943359 C694.56539426 1174.90298756 694.57822313 1218.13651524 694.57111889 1261.37007737 C694.57040286 1265.98229614 694.56972847 1270.59451492 694.56907845 1275.2067337 C694.56890864 1276.34232939 694.56873883 1277.47792507 694.56856387 1278.64793274 C694.5662635 1295.76989391 694.57422541 1312.89183063 694.58736992 1330.01378632 C694.60229713 1349.49228651 694.60310293 1368.9707295 694.58529901 1388.4492285 C694.57575323 1399.34037572 694.57713561 1410.23138942 694.5945337 1421.12252766 C694.60505707 1428.40970813 694.60087535 1435.69678735 694.58505366 1442.98395792 C694.5764588 1447.127772 694.57390559 1451.27132533 694.58932298 1455.41512558 C694.66399716 1476.96120186 693.70100924 1497.76589914 686.57275391 1518.32861328 C686.23872559 1519.30749512 685.90469727 1520.28637695 685.56054688 1521.29492188 C676.7081146 1546.10633336 662.52104253 1565.94282466 644.07275391 1584.39111328 C643.50814453 1585.00212891 642.94353516 1585.61314453 642.36181641 1586.24267578 C631.88363866 1597.40956005 618.57235969 1605.41041825 605.07275391 1612.39111328 C604.45964355 1612.71063965 603.8465332 1613.03016602 603.21484375 1613.359375 C573.48647585 1628.63478939 542.94311105 1629.99541561 510.2174914 1629.9049835 C504.8995802 1629.89475747 499.58171513 1629.90790745 494.26381063 1629.91795683 C484.96026481 1629.93235157 475.65681196 1629.93199748 466.35326195 1629.92176819 C452.51824358 1629.90659809 438.68330322 1629.91439403 424.84828533 1629.92660142 C401.56569875 1629.94641878 378.28315465 1629.94719436 355.00056458 1629.93629456 C354.2927934 1629.93596337 353.58502223 1629.93563219 352.85580345 1629.93529097 C352.14688693 1629.93495926 351.43797042 1629.93462754 350.70757158 1629.93428577 C329.0800423 1629.92417926 307.45252809 1629.92159385 285.82499695 1629.92637634 C284.37478555 1629.92668626 282.92457414 1629.92699489 281.47436274 1629.92730222 C275.6460607 1629.92854417 269.81775866 1629.92981884 263.98945663 1629.93114128 C247.69855543 1629.93480869 231.40765419 1629.93709155 215.11675262 1629.93828583 C214.00412694 1629.9383677 214.00412694 1629.9383677 212.86902396 1629.93845123 C189.24581277 1629.94008751 165.62260682 1629.93558511 141.99939728 1629.92688751 C141.23358774 1629.92660652 140.46777821 1629.92632552 139.67876233 1629.92603601 C127.24376597 1629.92145662 114.80876972 1629.91657858 102.37377349 1629.91167531 C53.06004018 1629.89225108 3.74635031 1629.89315266 -45.56738281 1629.91259766 C-57.99621832 1629.91748271 -70.42505384 1629.92232704 -82.85388947 1629.92688751 C-83.61925518 1629.9271693 -84.3846209 1629.9274511 -85.17317952 1629.92774143 C-108.77253531 1629.9363706 -132.37188749 1629.94002243 -155.97124481 1629.93828583 C-156.71244548 1629.93823149 -157.45364614 1629.93817715 -158.21730744 1629.93812117 C-174.4903349 1629.93687107 -190.76336198 1629.93433614 -207.03638907 1629.93064382 C-212.85937298 1629.92932734 -218.68235691 1629.92807501 -224.50534084 1629.92684097 C-225.95384908 1629.92653142 -227.40235731 1629.9262165 -228.85086554 1629.92589619 C-250.47068195 1629.92112851 -272.09048135 1629.92517457 -293.71029563 1629.93529097 C-294.41806681 1629.93562216 -295.12583798 1629.93595334 -295.85505676 1629.93629456 C-296.91474122 1629.93679065 -296.91474122 1629.93679065 -297.99583344 1629.93729677 C-321.8605478 1629.94834692 -345.72520943 1629.94422872 -369.58991921 1629.92317158 C-383.33829033 1629.91144015 -397.08655783 1629.9106399 -410.83492623 1629.92575628 C-420.02651276 1629.93474623 -429.21801645 1629.92910674 -438.40959073 1629.9117372 C-443.64102657 1629.90225244 -448.87225702 1629.8989049 -454.10368615 1629.91336113 C-494.35172253 1630.01650671 -494.35172253 1630.01650671 -511.92724609 1625.39111328 C-513.13999128 1625.08258439 -514.35273646 1624.77405549 -515.6022315 1624.45617723 C-518.40340152 1623.7029344 -521.12459239 1622.84101295 -523.86474609 1621.89111328 C-524.84362793 1621.55708496 -525.82250977 1621.22305664 -526.83105469 1620.87890625 C-548.15878247 1613.2694131 -567.18953318 1601.57041485 -583.41650391 1585.84619141 C-584.96251166 1584.35714709 -586.53331347 1582.89777206 -588.10693359 1581.43798828 C-612.90015926 1558.04329746 -628.9893372 1525.01786473 -633.92724609 1491.39111328 C-634.18530285 1489.73807467 -634.18530285 1489.73807467 -634.44857287 1488.05164135 C-635.20154914 1481.92277193 -635.06710334 1475.76934677 -635.05867386 1469.60391426 C-635.06032526 1468.1964697 -635.06241234 1466.7890256 -635.06489396 1465.38158226 C-635.0704477 1461.5109286 -635.06979057 1457.64029713 -635.06811637 1453.76964077 C-635.06738434 1449.55961712 -635.07241041 1445.34959969 -635.07669139 1441.1395787 C-635.08426727 1432.78804769 -635.08646424 1424.43652307 -635.08702044 1416.08498898 C-635.0879345 1406.08189422 -635.09460328 1396.07880537 -635.10136727 1386.07571315 C-635.11742566 1361.89818514 -635.12333042 1337.72065775 -635.12811602 1313.54312536 C-635.13045218 1302.10443833 -635.13405486 1290.6657518 -635.13781139 1279.22706516 C-635.15064692 1240.06772932 -635.16136598 1200.90839376 -635.164814 1161.74905586 C-635.16503563 1159.29093973 -635.16525741 1156.83282359 -635.16547935 1154.37470745 C-635.16569999 1151.91066793 -635.16592047 1149.44662841 -635.16614079 1146.98258889 C-635.16658335 1142.0393366 -635.16703046 1137.09608432 -635.16748047 1132.15283203 C-635.16758986 1130.92719325 -635.16769925 1129.70155447 -635.16781196 1128.43877511 C-635.17144226 1088.70105797 -635.18736128 1048.96335906 -635.21067083 1009.2256489 C-635.23527252 967.20825347 -635.248987 925.19086846 -635.25018191 883.17346561 C-635.25035337 878.56003944 -635.25056879 873.94661327 -635.25081635 869.3331871 C-635.25087211 868.19723987 -635.25092788 867.06129265 -635.25098534 865.89092277 C-635.25213551 847.61810896 -635.26315463 829.34531388 -635.2777034 811.07250639 C-635.2920771 792.70176239 -635.29530045 774.3310424 -635.28726342 755.96029432 C-635.28281126 745.05060121 -635.28665128 734.14098562 -635.30250193 723.23130271 C-635.31226895 715.9365178 -635.31105724 708.64178705 -635.3010657 701.34700261 C-635.2956861 697.19541513 -635.29492323 693.04397625 -635.30757442 688.89240123 C-635.44868657 639.42954878 -621.89127016 597.37897407 -586.92724609 561.39111328 C-586.39881104 560.84003906 -585.87037598 560.28896484 -585.32592773 559.72119141 C-574.22864653 548.33678982 -561.03458901 539.58161639 -546.92724609 532.39111328 C-545.92274414 531.86759277 -545.92274414 531.86759277 -544.89794922 531.33349609 C-523.45214129 520.24259924 -499.35631214 514.17606103 -475.18481445 514.27758789 C-473.79295929 514.27736885 -473.79295929 514.27736885 -472.37298584 514.27714539 C-469.33766252 514.27783627 -466.3024023 514.2855897 -463.26708984 514.29345703 C-461.15002984 514.29532414 -459.0329694 514.29674666 -456.91590881 514.29774475 C-451.36755156 514.30154684 -445.81922085 514.31135723 -440.27087402 514.32244873 C-434.59969441 514.33271267 -428.92851046 514.33725301 -423.25732422 514.34228516 C-412.14728657 514.35298173 -401.03726855 514.37003019 -389.92724609 514.39111328 C-389.92908968 513.71601589 -389.93093327 513.0409185 -389.93283272 512.34536362 C-389.97735657 495.77867131 -390.01026793 479.2119984 -390.03087044 462.64525986 C-390.04110312 454.63311337 -390.05500635 446.62100725 -390.078125 438.60888672 C-390.09830828 431.61061517 -390.11102035 424.6123729 -390.11542308 417.61407304 C-390.11798917 413.92207849 -390.12384402 410.23016759 -390.13870621 406.53820038 C-390.23251439 382.26705225 -389.57077425 358.02842227 -385.73974609 334.01611328 C-385.63365021 333.34109772 -385.52755432 332.66608215 -385.41824341 331.97061157 C-379.87519973 296.9489526 -369.96358384 262.55409863 -354.92724609 230.39111328 C-354.50620605 229.47120605 -354.08516602 228.55129883 -353.65136719 227.60351562 C-341.40099744 200.86201846 -326.26029087 175.45015057 -307.92724609 152.39111328 C-307.45254883 151.78928223 -306.97785156 151.18745117 -306.48876953 150.56738281 C-299.47926173 141.7019039 -292.19030457 133.20672154 -284.42871094 124.99414062 C-282.8654294 123.32511517 -281.32568964 121.63680118 -279.79052734 119.94189453 C-275.10857851 114.78049543 -270.45459567 109.72194128 -265.09521484 105.24658203 C-262.81569311 103.29564001 -260.63543025 101.25329982 -258.45361328 99.19433594 C-251.28566013 92.45239065 -243.79919077 86.29109606 -235.92724609 80.39111328 C-235.24533203 79.87935547 -234.56341797 79.36759766 -233.86083984 78.84033203 C-218.29222199 67.22744286 -202.03763502 56.76392161 -184.96386719 47.50195312 C-182.87570681 46.36300207 -180.80230353 45.19965768 -178.72802734 44.03564453 C-144.36435189 25.04409059 -105.6408299 12.83898845 -67.17724609 5.70361328 C-65.66493408 5.41780396 -65.66493408 5.41780396 -64.12207031 5.1262207 C-42.88414955 1.38976882 -21.54352266 -0.11485952 0 0 Z M-40.92724609 123.39111328 C-41.91644043 123.56271973 -42.90563477 123.73432617 -43.92480469 123.91113281 C-89.76005884 132.13458149 -132.95937298 151.70651677 -168.92724609 181.39111328 C-169.50603516 181.86838867 -170.08482422 182.34566406 -170.68115234 182.83740234 C-184.30929557 194.1724875 -197.04281582 206.36882924 -207.92724609 220.39111328 C-208.80431737 221.47983367 -209.68332578 222.56699551 -210.56396484 223.65283203 C-231.20097452 249.24431874 -247.22576295 278.96877578 -256.92724609 310.39111328 C-257.19230957 311.23593262 -257.45737305 312.08075195 -257.73046875 312.95117188 C-277.95243817 378.05396793 -269.92724609 446.97107091 -269.92724609 514.39111328 C-89.41724609 514.39111328 91.09275391 514.39111328 277.07275391 514.39111328 C281.75542233 350.45723801 281.75542233 350.45723801 208.15087891 212.65283203 C206.26546456 210.60084912 204.44505358 208.50959374 202.63525391 206.39111328 C196.02690371 198.81904535 188.7970559 191.81515777 181.07275391 185.39111328 C180.58806641 184.98199707 180.10337891 184.57288086 179.60400391 184.15136719 C130.45453756 142.84395812 68.60331434 120.18629487 4.44775391 120.14111328 C3.58415253 120.14043854 2.72055115 120.13976379 1.83078003 120.1390686 C-12.60351572 120.15691487 -26.68249637 120.89907224 -40.92724609 123.39111328 Z M-504.81396484 649.68408203 C-510.76793904 657.31089186 -515.04883332 666.27349212 -515.05604726 676.02295876 C-515.05931945 677.17990724 -515.06259165 678.33685572 -515.065963 679.52886325 C-515.06447938 680.80321442 -515.06299575 682.07756558 -515.06146717 683.39053345 C-515.06341995 684.7610233 -515.06580873 686.13151258 -515.06859514 687.50200099 C-515.07500759 691.2886546 -515.07515577 695.07528704 -515.07431773 698.86194505 C-515.07448699 702.97387084 -515.08039037 707.08578899 -515.08555859 711.19771099 C-515.09489536 719.36255885 -515.09880845 727.52740129 -515.10107756 735.69225382 C-515.10403684 745.46840202 -515.11273263 755.24454301 -515.12149184 765.02068744 C-515.14234857 788.65246881 -515.15280798 812.28425144 -515.16162145 835.91603987 C-515.16582622 847.09269019 -515.17104843 858.26933997 -515.17630598 869.44598984 C-515.19419725 907.69482186 -515.20919387 945.94365404 -515.21662617 984.19248962 C-515.21710093 986.59434074 -515.21757682 988.99619186 -515.21805383 991.39804298 C-515.21829021 992.58916156 -515.21852658 993.78028014 -515.21877012 995.00749322 C-515.21997134 1001.04243038 -515.22118678 1007.07736754 -515.22241211 1013.11230469 C-515.22265226 1014.30996272 -515.22289241 1015.50762075 -515.22313984 1016.74157144 C-515.23103385 1055.57792949 -515.25446726 1094.414257 -515.28696805 1133.25060171 C-515.32125615 1174.29749214 -515.34097637 1215.3443647 -515.34427041 1256.39126968 C-515.34468796 1260.89624278 -515.34516752 1265.40121588 -515.34569359 1269.90618896 C-515.34581678 1271.01546372 -515.34593997 1272.12473848 -515.3460669 1273.26762763 C-515.3484002 1291.129008 -515.36406748 1308.99035294 -515.38453543 1326.85172068 C-515.40477871 1344.80165552 -515.41027783 1362.75154776 -515.4007648 1380.70149189 C-515.395544 1391.36805457 -515.40145466 1402.03447555 -515.42329947 1412.70101787 C-515.43679003 1419.8262199 -515.43574599 1426.9513242 -515.42289751 1434.07652716 C-515.41598929 1438.13628513 -515.41537077 1442.19577186 -515.4324576 1446.2555058 C-515.44789425 1449.95332511 -515.44470619 1453.65065591 -515.42704732 1457.34846101 C-515.42244204 1459.2956143 -515.43735552 1461.24278443 -515.45320711 1463.18987864 C-515.35051151 1476.263443 -511.6492367 1486.60143072 -502.92724609 1496.39111328 C-496.98492659 1502.16836835 -490.83805765 1505.93459811 -482.92724609 1508.39111328 C-482.08504868 1508.65601888 -482.08504868 1508.65601888 -481.22583717 1508.9262761 C-478.09802503 1509.55880417 -475.11500776 1509.518051 -471.92322636 1509.51991445 C-471.21337219 1509.52168946 -470.50351803 1509.52346447 -469.77215314 1509.52529327 C-467.37665267 1509.53005088 -464.98121195 1509.527656 -462.58570862 1509.52533436 C-460.85025733 1509.52728662 -459.11480648 1509.52967521 -457.37935632 1509.53246233 C-452.57937448 1509.53888119 -447.77940932 1509.53902245 -442.979424 1509.53818492 C-437.76903264 1509.53835405 -432.55864733 1509.544256 -427.34825897 1509.54942578 C-417.00007955 1509.55876644 -406.6519044 1509.56267629 -396.30372129 1509.56494475 C-383.91438731 1509.567903 -371.52505904 1509.57659817 -359.13572805 1509.58535903 C-329.18703717 1509.60621963 -299.23834638 1509.61667905 -269.28965012 1509.62548863 C-259.37237035 1509.62842217 -249.4550908 1509.631792 -239.53781128 1509.63545585 C-238.48850302 1509.63584328 -238.48850302 1509.63584328 -237.41799661 1509.63623855 C-234.58795534 1509.63728476 -231.75791408 1509.63833318 -228.92787281 1509.63938437 C-180.5180736 1509.65734975 -132.10827404 1509.67272902 -83.69847196 1509.6801434 C-79.89546791 1509.68072737 -76.09246387 1509.68132464 -72.28945982 1509.68192102 C-71.15786141 1509.6820982 -71.15786141 1509.6820982 -70.00340243 1509.68227896 C-62.36022001 1509.68347635 -54.71703759 1509.68468511 -47.07385517 1509.68591149 C-45.54136901 1509.68615672 -44.00888284 1509.68640058 -42.47639667 1509.68664306 C6.74059895 1509.69443265 55.95757073 1509.71681534 105.17455593 1509.74931948 C140.53518783 1509.77266467 175.89581499 1509.79421668 211.25645447 1509.8013258 C211.98364809 1509.80147282 212.71084172 1509.80161984 213.46007151 1509.80177132 C229.42380812 1509.80495613 245.38754467 1509.80700703 261.35128155 1509.80799886 C267.77448109 1509.8084136 274.19768061 1509.8089685 280.62088013 1509.80956078 C281.32386127 1509.80962144 282.02684242 1509.80968211 282.75112602 1509.80974462 C305.39676359 1509.81176071 328.04237301 1509.8259999 350.68800076 1509.84650578 C374.13316782 1509.86766036 397.57828912 1509.87444312 421.02346784 1509.86463199 C434.54279099 1509.85940724 448.0620024 1509.86534048 461.58130952 1509.88716666 C470.60808237 1509.90064095 479.63477802 1509.89962762 488.66155158 1509.8867647 C493.80738334 1509.87984565 498.95300096 1509.879275 504.09881389 1509.89632479 C508.78209863 1509.91171584 513.46499689 1509.90862108 518.14827012 1509.89091451 C519.83009204 1509.88777011 521.51194343 1509.89129873 523.19373161 1509.90240626 C539.12701074 1510.00076636 551.01859897 1506.78493177 562.91650391 1495.66845703 C572.47563357 1485.35337579 574.37381563 1473.51518507 574.33002281 1460.01975632 C574.33271754 1458.6454661 574.33628614 1457.27117736 574.34064728 1455.89689142 C574.35010446 1452.11365761 574.34710491 1448.33052011 574.34209174 1444.54728157 C574.33882636 1440.43388442 574.34710661 1436.3205079 574.35391009 1432.20711732 C574.36422212 1424.99549144 574.36705179 1417.78389242 574.36499786 1410.5722599 C574.36195101 1399.8482188 574.37026484 1389.12420748 574.38074712 1378.40017216 C574.400103 1358.13354984 574.40571593 1337.86693762 574.40686123 1317.60030714 C574.40777981 1301.95125128 574.41189387 1286.3021994 574.41826248 1270.65314484 C574.42005753 1266.15089806 574.42183716 1261.64865129 574.42361224 1257.1464045 C574.42405433 1256.02717801 574.42449643 1254.90795151 574.42495192 1253.75480906 C574.43726272 1222.26704996 574.44515281 1190.77929223 574.44426537 1159.29153061 C574.44423421 1158.10403334 574.44420305 1156.91653606 574.44417095 1155.69305402 C574.44400473 1149.67412832 574.44380665 1143.65520263 574.44360153 1137.63627693 C574.44356164 1136.44086593 574.44352175 1135.24545493 574.44348065 1134.01381935 C574.44339978 1131.59640642 574.44331618 1129.1789935 574.44322987 1126.76158058 C574.44200421 1089.14605128 574.45701927 1051.53055804 574.484375 1013.91503906 C574.51508599 971.6683079 574.5323081 929.42160042 574.53044856 887.17485738 C574.53029929 882.67135318 574.53020188 878.16784899 574.53013992 873.66434479 C574.53011661 872.55544211 574.53009331 871.44653943 574.53006929 870.30403364 C574.53000771 852.44727232 574.5427876 834.59054225 574.56000445 816.73379023 C574.57694562 798.79207731 574.57894666 780.85041019 574.56578581 762.9086937 C574.55838659 752.24635175 574.56208362 741.5841488 574.58167049 730.92182153 C574.59364794 723.80081084 574.59110434 716.6799011 574.57672949 709.55889509 C574.5689476 705.50076773 574.56746886 701.44290986 574.5836442 697.38480124 C574.59824382 693.68966317 574.59428087 689.99501803 574.57579646 686.2999016 C574.57075428 684.35177603 574.58524766 682.40362939 574.60064203 680.45555812 C574.48945679 666.71821236 569.63928114 656.27234021 560.44775391 646.20361328 C548.46845805 634.72822662 533.78667873 634.09205235 518.20968151 634.13663769 C516.47863444 634.13424647 514.7475884 634.13098039 513.01654443 634.12692109 C508.25208249 634.11829598 503.48769926 634.12212968 498.72323609 634.12797681 C493.54267741 634.13214391 488.36213317 634.12474698 483.18157798 634.1188243 C474.09933291 634.1100538 465.01711039 634.10875321 455.93486214 634.11232758 C442.42922454 634.11762879 428.92360882 634.11154513 415.41797361 634.10324464 C390.59706411 634.08840968 365.77616759 634.0861562 340.95525548 634.08856502 C337.4385286 634.08890347 333.92180172 634.08922557 330.40507483 634.08953071 C329.35730857 634.08962227 329.35730857 634.08962227 328.28837531 634.08971569 C312.8076866 634.09098764 297.32699927 634.0883861 281.84631097 634.08500464 C278.3114102 634.0842339 274.77650943 634.08348917 271.24160865 634.08273963 C269.8229067 634.08243793 268.40420474 634.08213605 266.98550279 634.08183398 C266.28227703 634.0816843 265.57905126 634.08153462 264.85451563 634.08138041 C263.43208461 634.08107688 262.0096536 634.08077219 260.58722259 634.08046636 C220.22522278 634.07179302 179.86322419 634.06714966 139.50122356 634.07141399 C138.38011541 634.07153108 138.38011541 634.07153108 137.23635861 634.07165053 C128.90199651 634.07252333 120.56763442 634.07345259 112.23327234 634.07440116 C111.10456744 634.07452943 111.10456744 634.07452943 109.95306042 634.07466028 C105.38848761 634.07517907 105.38848761 634.07517907 100.82391481 634.07570251 C52.69241678 634.08123841 4.56093792 634.07369594 -43.57055664 634.05493164 C-55.69833275 634.05020943 -67.82610886 634.04552892 -79.95388508 634.04109478 C-80.70063968 634.04082146 -81.44739427 634.04054814 -82.2167778 634.04026653 C-105.23183794 634.03189537 -128.24689647 634.02721558 -151.26195812 634.02638721 C-151.98452055 634.02636085 -152.70708298 634.02633448 -153.45154123 634.02630732 C-169.31338317 634.02576654 -185.17522498 634.02613898 -201.03706687 634.02734703 C-206.71267253 634.02777266 -212.38827818 634.02813778 -218.06388384 634.02847647 C-219.47582789 634.02856177 -220.88777193 634.02865071 -222.29971597 634.02874329 C-244.79732131 634.03019203 -267.29491361 634.02306606 -289.79251581 634.01173933 C-313.08118749 634.00009025 -336.36983336 633.99952538 -359.65850727 634.01158275 C-373.0867423 634.01822352 -386.51491605 634.01655226 -399.94314621 634.00299424 C-408.90902985 633.99477026 -417.87486742 633.99742054 -426.84074729 634.00896951 C-431.95168339 634.01524628 -437.06249961 634.01677434 -442.17342893 634.00510617 C-446.82496559 633.99458435 -451.4762806 633.99792188 -456.12780534 634.0122107 C-457.79814099 634.01493436 -459.4684944 634.01265926 -461.13881332 634.00470356 C-478.46765508 633.9278142 -492.40247193 636.74350239 -504.81396484 649.68408203 Z " fill="#000000" transform="translate(994.92724609375,209.60888671875)"/>
<path d="M0 0 C0.7115625 0.5878125 1.423125 1.175625 2.15625 1.78125 C26.8812838 22.70243244 41.62850298 55.31605808 44.6875 87.1875 C44.81093382 89.123868 44.91560438 91.06153816 45 93 C45.04125 93.91652344 45.0825 94.83304688 45.125 95.77734375 C45.90515724 131.32325804 32.32708399 164.29117114 8 190 C7.30261719 190.75023437 6.60523438 191.50046875 5.88671875 192.2734375 C1.13425484 197.22573079 -3.94094762 201.43967384 -9.48339844 205.46289062 C-15.5490483 209.93153677 -18.25675164 213.66997808 -20 221 C-20.17420625 223.55081289 -20.2509062 226.10938316 -20.2515564 228.6661377 C-20.25452654 229.40630269 -20.25749667 230.14646768 -20.26055682 230.90906191 C-20.268154 233.37239766 -20.26172057 235.83549194 -20.25537109 238.29882812 C-20.25812296 240.0717332 -20.26180404 241.84463705 -20.26634216 243.61753845 C-20.27443773 247.42724779 -20.27662678 251.2368985 -20.27439499 255.0466156 C-20.27155692 261.07283302 -20.28593169 267.09893367 -20.30337524 273.12512207 C-20.35035705 290.25836444 -20.37434679 307.39159839 -20.38085938 324.52490234 C-20.38461046 333.99370071 -20.40264115 343.46236647 -20.43595374 352.931108 C-20.45616109 358.91961053 -20.45854158 364.90777093 -20.44767356 370.89629364 C-20.44506496 374.62349215 -20.4590773 378.35049172 -20.47775459 382.07763863 C-20.48307295 383.80335833 -20.48158587 385.52911475 -20.47271919 387.25481987 C-20.46157237 389.61497521 -20.4750575 391.97378848 -20.49447632 394.3338623 C-20.49556585 395.65307426 -20.49665539 396.97228622 -20.49777794 398.3314743 C-21.24369537 403.78009451 -23.39601244 407.43822264 -27.375 411.3125 C-33.31752626 415.13269545 -38.89363541 415.29346775 -45.73388672 415.2746582 C-46.69726959 415.27976913 -47.66065247 415.28488007 -48.65322876 415.29014587 C-51.82877871 415.30401304 -55.00411092 415.30308716 -58.1796875 415.30078125 C-60.39397258 415.30466991 -62.60825691 415.30900493 -64.82254028 415.31376648 C-69.46098245 415.32122263 -74.0993485 415.32094188 -78.73779297 415.31567383 C-84.67154303 415.30988173 -90.60498069 415.32680708 -96.53867912 415.3500185 C-101.11127534 415.36477594 -105.68379669 415.36562476 -110.25641251 415.36250877 C-112.44360091 415.36302103 -114.6307936 415.3682407 -116.81795883 415.37832069 C-119.88128495 415.39070578 -122.94400721 415.38388058 -126.00732422 415.37231445 C-126.90420959 415.37995819 -127.80109497 415.38760193 -128.72515869 415.39547729 C-135.09083256 415.34255728 -140.91682414 414.51177647 -146.0234375 410.3515625 C-146.69246094 409.49691406 -146.69246094 409.49691406 -147.375 408.625 C-147.83648438 408.06039063 -148.29796875 407.49578125 -148.7734375 406.9140625 C-151.78244385 402.21847935 -152.28843323 397.97637212 -152.2515564 392.4984436 C-152.25452654 391.75182036 -152.25749667 391.00519711 -152.26055682 390.23594892 C-152.26818409 387.73876376 -152.26170805 385.2418147 -152.25537109 382.74462891 C-152.25812159 380.95231466 -152.26180184 379.16000164 -152.26634216 377.36769104 C-152.27445069 373.50992816 -152.27662349 369.65222324 -152.27439499 365.79445267 C-152.27156143 359.69278479 -152.28591549 353.59123267 -152.30337524 347.48959351 C-152.35039811 330.13956437 -152.37434363 312.78954315 -152.38085938 295.43945312 C-152.38461044 285.85567256 -152.40264317 276.272023 -152.43595374 266.68829858 C-152.45616731 260.62453258 -152.45853821 254.56110446 -152.44767356 248.49731851 C-152.44506501 244.72204689 -152.45907749 240.94697169 -152.47775459 237.17175102 C-152.48307347 235.42345712 -152.48158498 233.67512697 -152.47271919 231.92684746 C-152.46157416 229.53593759 -152.47505575 227.14635302 -152.49447632 224.75552368 C-152.48535166 224.06728063 -152.476227 223.37903758 -152.46682584 222.66993868 C-152.55872251 216.83707257 -154.54098306 212.58639931 -158.56469727 208.35424805 C-159.06026123 207.99371338 -159.5558252 207.63317871 -160.06640625 207.26171875 C-160.62884033 206.83955078 -161.19127441 206.41738281 -161.77075195 205.98242188 C-162.36202881 205.55509766 -162.95330566 205.12777344 -163.5625 204.6875 C-164.8200582 203.73617125 -166.0752381 202.78169117 -167.328125 201.82421875 C-168.25915039 201.11531494 -168.25915039 201.11531494 -169.20898438 200.39208984 C-195.20197528 180.1887046 -211.25910095 149.78555861 -216.375 117.5625 C-220.2501308 80.96848136 -211.66003927 46.40527405 -189.375 17.0625 C-166.26313515 -10.70827832 -136.01768005 -27.21602134 -100.125 -31.6875 C-63.00018002 -34.55263389 -28.5342945 -23.96880738 0 0 Z " fill="#000000" transform="translate(1106,1080)"/>
</svg>
